<?xml version="1.0" encoding="utf-8"?>
<!-- Generator: Adobe Illustrator 27.8.1, SVG Export Plug-In . SVG Version: 6.00 Build 0)  -->
<svg version="1.1" id="Calque_1" xmlns="http://www.w3.org/2000/svg" xmlns:xlink="http://www.w3.org/1999/xlink" x="0px" y="0px"
	 viewBox="0 0 25 33" style="enable-background:new 0 0 25 33;" xml:space="preserve">
<style type="text/css">
	.st0{fill:none;stroke:#000000;stroke-width:4;}
</style>
<path class="st0" d="M22.3,21.5L22.3,21.5c0,1.2-0.2,2.4-0.6,3.5c-0.4,1.1-1.1,2.1-1.9,2.9c-0.8,0.8-1.8,1.4-2.8,1.9
	c0.1-1.1-0.1-2.3-0.5-3.4C16,24.8,15.1,23.2,14,22l-0.1-0.1c-0.2-0.2-0.5-0.4-0.7-0.5c-0.3-0.1-0.6-0.2-0.9-0.2
	c-0.3,0-0.6,0.1-0.9,0.2c-0.3,0.1-0.5,0.3-0.7,0.5L10.6,22c-1.1,1.2-2,2.9-2.5,4.5c-0.4,1.1-0.6,2.4-0.5,3.6c-1.1-0.4-2-1-2.7-1.7
	c-1.6-1.5-2.6-3.6-2.6-6.3c0-2.1,0.5-4.1,1.4-6c0.5-1.1,1.1-2.1,1.8-3c0,0.4,0.1,0.8,0.2,1.2C6,15.3,6.6,16.4,7.5,17
	c0,0,1.5,0.6,2.3,0.5c0.7-0.1,1.4-0.4,1.9-0.8c1.1-0.8,1.4-2,1.5-3c0.1-1-0.1-2.1-0.2-3c0,0,0-0.1,0-0.1c-0.1-1.1-0.2-2-0.2-2.8
	c0-0.8,0.2-1.5,0.5-2l0,0l0,0c0.4-0.7,1-1.3,1.8-1.6c0.1-0.1,0.2-0.1,0.4-0.2c-0.1,0.2-0.1,0.4-0.1,0.6c-0.3,1.7,0.3,4.1,2.9,7.3
	C21.3,15.5,22.3,18.1,22.3,21.5z"/>
</svg>
