<svg width="25" height="33" viewBox="0 0 25 33" fill="none" xmlns="http://www.w3.org/2000/svg">
<path d="M23.2522 21.1342V21.1614L23.253 21.1885C23.2926 22.4561 23.0765 23.7187 22.6175 24.9016C22.1628 26.0736 21.4787 27.1438 20.6049 28.0499C19.702 28.9013 18.6717 29.59 17.5599 30.0972C17.6639 28.8674 17.4148 27.5911 17.0479 26.4756C16.4728 24.7273 15.4812 22.9776 14.3399 21.6361L14.2938 21.582L14.2436 21.5318C14.0138 21.3026 13.7414 21.121 13.4418 20.9972C13.1422 20.8734 12.8213 20.8098 12.4973 20.8098C12.1733 20.8098 11.8523 20.8734 11.5528 20.9972C11.2532 21.121 10.9807 21.3026 10.751 21.5318L10.7007 21.582L10.6547 21.6361C9.51215 22.979 8.52085 24.7339 7.94621 26.4859C7.55959 27.6647 7.30364 29.0231 7.45499 30.3158C6.31586 29.8687 5.3376 29.2567 4.53468 28.5186C2.79292 26.9172 1.74634 24.6058 1.74241 21.7178C1.78689 19.4864 2.28448 17.2869 3.20533 15.2523C3.72175 14.1113 4.36527 13.0353 5.12181 12.044C5.16219 12.4826 5.23389 12.8987 5.33467 13.2897C5.64945 14.5112 6.28797 15.617 7.27772 16.2637L7.34102 16.305L7.40766 16.3408C8.11001 16.7172 8.91077 16.8698 9.7022 16.7782C10.4644 16.6901 11.1835 16.3796 11.7696 15.8859C12.9483 15.001 13.2915 13.7012 13.3667 12.604C13.4384 11.5592 13.2875 10.3765 13.1553 9.34049C13.1506 9.30378 13.1459 9.26725 13.1413 9.23091C12.9952 8.08347 12.872 7.08472 12.9094 6.16446C12.9458 5.26922 13.1325 4.59398 13.5014 4.06305L13.5319 4.01916L13.5597 3.97349C14.0171 3.22066 14.6809 2.61291 15.4735 2.22223C15.6 2.15991 15.7288 2.10354 15.8597 2.05318C15.7969 2.26012 15.7496 2.47195 15.7185 2.68692C15.39 4.55212 16.0616 7.12419 18.8392 10.5635C22.1227 14.6314 23.2522 17.5189 23.2522 21.1342ZM18.1529 0.69722L18.7726 0.586681L18.1529 0.69722Z" stroke="white" stroke-width="3.4848"/>
</svg>
