<svg width="25" height="24" viewBox="0 0 25 24" fill="none" xmlns="http://www.w3.org/2000/svg">
<path d="M24.15 2.56287L16.65 0.0628736H16.5625C16.5043 0.0570256 16.4457 0.0570256 16.3875 0.0628736H16.1H15.9375H15.85L8.75 2.50037L1.65 0.0628736C1.46202 0.00088802 1.26201 -0.0155697 1.06642 0.0148546C0.870838 0.0452789 0.685274 0.121716 0.525004 0.237874C0.363452 0.352894 0.231585 0.504702 0.140298 0.680757C0.04901 0.856812 0.000921192 1.05206 4.16692e-06 1.25037V18.7504C-0.000672285 19.0124 0.0810278 19.2681 0.233557 19.4812C0.386085 19.6942 0.601728 19.854 0.850004 19.9379L8.35 22.4379C8.60181 22.52 8.87319 22.52 9.125 22.4379L16.25 20.0629L23.35 22.5004C23.4827 22.5184 23.6173 22.5184 23.75 22.5004C24.0114 22.504 24.2665 22.4205 24.475 22.2629C24.6365 22.1478 24.7684 21.996 24.8597 21.82C24.951 21.6439 24.9991 21.4487 25 21.2504V3.75037C25.0007 3.48832 24.919 3.23268 24.7664 3.01959C24.6139 2.80649 24.3983 2.64673 24.15 2.56287ZM7.5 19.5129L2.5 17.8504V2.98787L7.5 4.65037V19.5129ZM15 17.8504L10 19.5129V4.65037L15 2.98787V17.8504ZM22.5 19.5129L17.5 17.8504V2.98787L22.5 4.65037V19.5129Z" fill="black"/>
</svg>
