<svg width="25" height="25" viewBox="0 0 25 25" fill="none" xmlns="http://www.w3.org/2000/svg">
<path d="M22.25 23.3H23.6M18.2 23.3H15.5V19.25M19.55 19.25H23.6V15.2H22.25M15.5 15.2H18.2M2 19.2496C2 17.9917 2 17.3626 2.20552 16.8664C2.47956 16.2048 3.00483 15.6795 3.66641 15.4055C4.16259 15.2 4.79161 15.2 6.04965 15.2C7.3077 15.2 7.93741 15.2 8.43359 15.4055C9.09517 15.6795 9.6203 16.2048 9.89434 16.8664C10.0999 17.3626 10.0999 17.9919 10.0999 19.25C10.0999 20.5081 10.0999 21.137 9.89434 21.6333C9.6203 22.2948 9.09517 22.8203 8.43359 23.0944C7.93741 23.2999 7.30769 23.2999 6.04965 23.2999C4.79161 23.2999 4.16259 23.2999 3.66641 23.0944C3.00483 22.8203 2.47956 22.2952 2.20552 21.6336C2 21.1374 2 20.5077 2 19.2496ZM15.5 5.74965C15.5 4.49161 15.5 3.86259 15.7055 3.36641C15.9795 2.70483 16.5048 2.17956 17.1664 1.90552C17.6626 1.7 18.2917 1.7 19.5496 1.7C20.8077 1.7 21.4374 1.7 21.9336 1.90552C22.5952 2.17956 23.1203 2.70483 23.3944 3.36641C23.5999 3.86259 23.5999 4.49196 23.5999 5.75C23.5999 7.00804 23.5999 7.63707 23.3944 8.13325C23.1203 8.79481 22.5952 9.3203 21.9336 9.59434C21.4374 9.79986 20.8077 9.79986 19.5496 9.79986C18.2917 9.79986 17.6626 9.79986 17.1664 9.59434C16.5048 9.3203 15.9795 8.79517 15.7055 8.13358C15.5 7.63741 15.5 7.0077 15.5 5.74965ZM2 5.74965C2 4.49161 2 3.86259 2.20552 3.36641C2.47956 2.70483 3.00483 2.17956 3.66641 1.90552C4.16259 1.7 4.79161 1.7 6.04965 1.7C7.3077 1.7 7.93741 1.7 8.43359 1.90552C9.09517 2.17956 9.6203 2.70483 9.89434 3.36641C10.0999 3.86259 10.0999 4.49196 10.0999 5.75C10.0999 7.00804 10.0999 7.63707 9.89434 8.13325C9.6203 8.79481 9.09517 9.3203 8.43359 9.59434C7.93741 9.79986 7.30769 9.79986 6.04965 9.79986C4.79161 9.79986 4.16259 9.79986 3.66641 9.59434C3.00483 9.3203 2.47956 8.79517 2.20552 8.13358C2 7.63741 2 7.0077 2 5.74965Z" stroke="black" stroke-width="2.4" stroke-linecap="round" stroke-linejoin="round"/>
</svg>
