<svg width="24" height="24" viewBox="0 0 24 24" fill="none" xmlns="http://www.w3.org/2000/svg">
<path fill-rule="evenodd" clip-rule="evenodd" d="M12 23C18.0751 23 23 18.0751 23 12C23 5.92487 18.0751 1 12 1C5.92487 1 1 5.92487 1 12C1 18.0751 5.92487 23 12 23ZM13.9471 8.6681C14.3321 8.293 14.9371 8.293 15.3111 8.6681C15.6851 9.0421 15.6851 9.6581 15.3111 10.031L13.3531 11.9901L15.3111 13.9481C15.6851 14.3221 15.6851 14.9271 15.3111 15.3C15.1241 15.487 14.8821 15.5871 14.6291 15.5871C14.3871 15.5871 14.1451 15.4991 13.9581 15.3L12.0001 13.3541L10.0421 15.3C9.85513 15.487 9.61313 15.5871 9.36013 15.5871C9.11813 15.5871 8.86513 15.487 8.67813 15.3C8.30413 14.9271 8.30413 14.3221 8.67813 13.9371L10.6361 11.9901L8.67813 10.031C8.30413 9.6581 8.30413 9.0421 8.67813 8.6681C9.05213 8.293 9.65713 8.293 10.0421 8.6681L12.0001 10.625L13.9471 8.6681Z" fill="#464646"/>
</svg>
