<svg width="26" height="25" viewBox="0 0 26 25" fill="none" xmlns="http://www.w3.org/2000/svg">
<path fill-rule="evenodd" clip-rule="evenodd" d="M18.9422 15.5L25.15 21.7969L22.025 25L15.6578 18.7875C14.0519 19.7868 12.1977 20.3152 10.3062 20.3125C4.69684 20.3125 0.149963 15.7547 0.149963 10.1562C0.149963 4.54687 4.70778 0 10.3062 0C15.9156 0 20.4625 4.55781 20.4625 10.1562C20.4653 12.0446 19.9386 13.8959 18.9422 15.5ZM3.27028 10.0812C3.27028 13.9562 6.41715 17.1125 10.3015 17.1125C14.1765 17.1125 17.3328 13.9641 17.3328 10.0812C17.3328 6.20625 14.1843 3.05 10.3015 3.05C6.42653 3.05 3.27028 6.19687 3.27028 10.0812Z" fill="black"/>
</svg>
