<svg width="26" height="25" viewBox="0 0 26 25" fill="none" xmlns="http://www.w3.org/2000/svg">
<path fill-rule="evenodd" clip-rule="evenodd" d="M19.1922 15.5L25.4 21.7969L22.275 25L15.9078 18.7875C14.3019 19.7868 12.4477 20.3152 10.5562 20.3125C4.94687 20.3125 0.399994 15.7547 0.399994 10.1562C0.399994 4.54688 4.95781 0 10.5562 0C16.1656 0 20.7125 4.55781 20.7125 10.1562C20.7153 12.0446 20.1886 13.8959 19.1922 15.5ZM3.52031 10.0813C3.52031 13.9563 6.66718 17.1125 10.5516 17.1125C14.4266 17.1125 17.5828 13.9641 17.5828 10.0813C17.5828 6.20625 14.4344 3.05 10.5516 3.05C6.67656 3.05 3.52031 6.19688 3.52031 10.0813Z" fill="#F3F2F9"/>
</svg>
